<mxfile host="app.diagrams.net" modified="2023-10-24T07:15:51.365Z" agent="Mozilla/5.0 (Windows NT 10.0; Win64; x64) AppleWebKit/537.36 (KHTML, like Gecko) Chrome/118.0.0.0 Safari/537.36" etag="Sm4BtsLgxYEYOMTvHYM1" version="22.0.6" type="github">
  <diagram name="Page-1" id="OYkDFaIK2MURlEOpUX2V">
    <mxGraphModel dx="2107" dy="637" grid="1" gridSize="10" guides="1" tooltips="1" connect="1" arrows="1" fold="1" page="1" pageScale="1" pageWidth="850" pageHeight="1100" math="0" shadow="0">
      <root>
        <mxCell id="0" />
        <mxCell id="1" parent="0" />
        <mxCell id="mmEia4qdqGNQ3zO4Y7I0-3" value="User" style="shape=umlActor;verticalLabelPosition=bottom;verticalAlign=top;html=1;outlineConnect=0;" parent="1" vertex="1">
          <mxGeometry x="90" y="10" width="30" height="60" as="geometry" />
        </mxCell>
        <mxCell id="mmEia4qdqGNQ3zO4Y7I0-11" value="" style="endArrow=none;dashed=1;html=1;rounded=0;startArrow=none;" parent="1" source="mmEia4qdqGNQ3zO4Y7I0-15" edge="1">
          <mxGeometry width="50" height="50" relative="1" as="geometry">
            <mxPoint x="105" y="602" as="sourcePoint" />
            <mxPoint x="105" y="90" as="targetPoint" />
          </mxGeometry>
        </mxCell>
        <mxCell id="mmEia4qdqGNQ3zO4Y7I0-16" value="" style="endArrow=none;dashed=1;html=1;rounded=0;startArrow=none;" parent="1" source="0Yaqg59yCP8CiuaYKTtR-36" target="mmEia4qdqGNQ3zO4Y7I0-15" edge="1">
          <mxGeometry width="50" height="50" relative="1" as="geometry">
            <mxPoint x="105" y="380" as="sourcePoint" />
            <mxPoint x="105" y="90" as="targetPoint" />
          </mxGeometry>
        </mxCell>
        <mxCell id="mmEia4qdqGNQ3zO4Y7I0-15" value="" style="rounded=0;whiteSpace=wrap;html=1;rotation=90;" parent="1" vertex="1">
          <mxGeometry x="51.72" y="163.29" width="106.56" height="15" as="geometry" />
        </mxCell>
        <mxCell id="mmEia4qdqGNQ3zO4Y7I0-17" value="" style="endArrow=classic;html=1;rounded=0;" parent="1" edge="1">
          <mxGeometry width="50" height="50" relative="1" as="geometry">
            <mxPoint x="110" y="117" as="sourcePoint" />
            <mxPoint x="312" y="117" as="targetPoint" />
          </mxGeometry>
        </mxCell>
        <mxCell id="mmEia4qdqGNQ3zO4Y7I0-18" value="Open App" style="text;html=1;strokeColor=none;fillColor=none;align=center;verticalAlign=middle;whiteSpace=wrap;rounded=0;" parent="1" vertex="1">
          <mxGeometry x="160" y="95" width="90" height="30" as="geometry" />
        </mxCell>
        <mxCell id="mmEia4qdqGNQ3zO4Y7I0-19" value="" style="rounded=1;whiteSpace=wrap;html=1;" parent="1" vertex="1">
          <mxGeometry x="260" y="20" width="120" height="60" as="geometry" />
        </mxCell>
        <mxCell id="mmEia4qdqGNQ3zO4Y7I0-20" value="MediTrack App" style="text;html=1;strokeColor=none;fillColor=none;align=center;verticalAlign=middle;whiteSpace=wrap;rounded=0;" parent="1" vertex="1">
          <mxGeometry x="290" y="35" width="60" height="30" as="geometry" />
        </mxCell>
        <mxCell id="mmEia4qdqGNQ3zO4Y7I0-21" value="" style="endArrow=none;dashed=1;html=1;rounded=0;startArrow=none;" parent="1" source="mmEia4qdqGNQ3zO4Y7I0-22" edge="1">
          <mxGeometry width="50" height="50" relative="1" as="geometry">
            <mxPoint x="319.5" y="469" as="sourcePoint" />
            <mxPoint x="319.5" y="80" as="targetPoint" />
          </mxGeometry>
        </mxCell>
        <mxCell id="mmEia4qdqGNQ3zO4Y7I0-23" value="" style="endArrow=none;dashed=1;html=1;rounded=0;startArrow=none;" parent="1" source="0Yaqg59yCP8CiuaYKTtR-41" target="mmEia4qdqGNQ3zO4Y7I0-22" edge="1">
          <mxGeometry width="50" height="50" relative="1" as="geometry">
            <mxPoint x="320" y="380" as="sourcePoint" />
            <mxPoint x="319.5" y="80" as="targetPoint" />
          </mxGeometry>
        </mxCell>
        <mxCell id="mmEia4qdqGNQ3zO4Y7I0-22" value="" style="rounded=0;whiteSpace=wrap;html=1;rotation=90;" parent="1" vertex="1">
          <mxGeometry x="264.15" y="162.86" width="111.71" height="15" as="geometry" />
        </mxCell>
        <mxCell id="mmEia4qdqGNQ3zO4Y7I0-25" value="" style="html=1;verticalAlign=bottom;endArrow=open;dashed=1;endSize=8;edgeStyle=elbowEdgeStyle;elbow=vertical;curved=0;rounded=0;startArrow=none;" parent="1" source="mmEia4qdqGNQ3zO4Y7I0-27" edge="1">
          <mxGeometry x="-1" y="-355" relative="1" as="geometry">
            <mxPoint x="310" y="160" as="sourcePoint" />
            <mxPoint x="110" y="160" as="targetPoint" />
            <mxPoint x="350" y="295" as="offset" />
          </mxGeometry>
        </mxCell>
        <mxCell id="mmEia4qdqGNQ3zO4Y7I0-28" value="" style="html=1;verticalAlign=bottom;endArrow=none;dashed=1;endSize=8;edgeStyle=elbowEdgeStyle;elbow=vertical;curved=0;rounded=0;" parent="1" target="mmEia4qdqGNQ3zO4Y7I0-27" edge="1">
          <mxGeometry x="-1" y="-355" relative="1" as="geometry">
            <mxPoint x="310" y="160" as="sourcePoint" />
            <mxPoint x="110" y="160" as="targetPoint" />
            <mxPoint x="350" y="295" as="offset" />
          </mxGeometry>
        </mxCell>
        <mxCell id="mmEia4qdqGNQ3zO4Y7I0-27" value="Render Login Page" style="text;html=1;strokeColor=none;fillColor=none;align=center;verticalAlign=middle;whiteSpace=wrap;rounded=0;" parent="1" vertex="1">
          <mxGeometry x="160" y="145" width="115" height="30" as="geometry" />
        </mxCell>
        <mxCell id="mmEia4qdqGNQ3zO4Y7I0-31" value="" style="rounded=1;whiteSpace=wrap;html=1;" parent="1" vertex="1">
          <mxGeometry x="483" y="19" width="120" height="60" as="geometry" />
        </mxCell>
        <mxCell id="mmEia4qdqGNQ3zO4Y7I0-32" value="Firebase" style="text;html=1;strokeColor=none;fillColor=none;align=center;verticalAlign=middle;whiteSpace=wrap;rounded=0;" parent="1" vertex="1">
          <mxGeometry x="513" y="34" width="60" height="30" as="geometry" />
        </mxCell>
        <mxCell id="mmEia4qdqGNQ3zO4Y7I0-33" value="" style="endArrow=none;dashed=1;html=1;rounded=0;startArrow=none;" parent="1" source="0Yaqg59yCP8CiuaYKTtR-69" edge="1">
          <mxGeometry width="50" height="50" relative="1" as="geometry">
            <mxPoint x="540" y="380" as="sourcePoint" />
            <mxPoint x="540" y="80" as="targetPoint" />
          </mxGeometry>
        </mxCell>
        <mxCell id="mmEia4qdqGNQ3zO4Y7I0-35" value="" style="endArrow=none;dashed=1;html=1;rounded=0;" parent="1" source="0Yaqg59yCP8CiuaYKTtR-71" edge="1">
          <mxGeometry width="50" height="50" relative="1" as="geometry">
            <mxPoint x="540" y="736" as="sourcePoint" />
            <mxPoint x="540" y="376" as="targetPoint" />
          </mxGeometry>
        </mxCell>
        <mxCell id="mmEia4qdqGNQ3zO4Y7I0-46" value="alt" style="shape=umlFrame;whiteSpace=wrap;html=1;pointerEvents=0;" parent="1" vertex="1">
          <mxGeometry x="-10" y="100" width="690" height="450" as="geometry" />
        </mxCell>
        <mxCell id="mmEia4qdqGNQ3zO4Y7I0-52" value="" style="endArrow=none;dashed=1;html=1;rounded=0;startArrow=none;" parent="1" edge="1">
          <mxGeometry width="50" height="50" relative="1" as="geometry">
            <mxPoint x="320" y="480" as="sourcePoint" />
            <mxPoint x="320.0050000000001" y="373.505" as="targetPoint" />
          </mxGeometry>
        </mxCell>
        <mxCell id="mmEia4qdqGNQ3zO4Y7I0-59" value="" style="endArrow=none;dashed=1;html=1;rounded=0;startArrow=none;" parent="1" source="0Yaqg59yCP8CiuaYKTtR-81" edge="1">
          <mxGeometry width="50" height="50" relative="1" as="geometry">
            <mxPoint x="105" y="700" as="sourcePoint" />
            <mxPoint x="105" y="378.5" as="targetPoint" />
          </mxGeometry>
        </mxCell>
        <mxCell id="mmEia4qdqGNQ3zO4Y7I0-62" value="" style="endArrow=none;dashed=1;html=1;rounded=0;startArrow=none;" parent="1" source="0Yaqg59yCP8CiuaYKTtR-95" edge="1">
          <mxGeometry width="50" height="50" relative="1" as="geometry">
            <mxPoint x="320" y="720" as="sourcePoint" />
            <mxPoint x="320.00405569782356" y="480.375" as="targetPoint" />
          </mxGeometry>
        </mxCell>
        <mxCell id="mmEia4qdqGNQ3zO4Y7I0-69" value="" style="endArrow=none;dashed=1;html=1;rounded=0;startArrow=none;" parent="1" source="hC-5yDcVV3wV5Di_Mccm-1" edge="1">
          <mxGeometry width="50" height="50" relative="1" as="geometry">
            <mxPoint x="104.99554381215478" y="1030.7849999999999" as="sourcePoint" />
            <mxPoint x="104.99925414364634" y="695" as="targetPoint" />
          </mxGeometry>
        </mxCell>
        <mxCell id="mmEia4qdqGNQ3zO4Y7I0-71" value="" style="endArrow=none;dashed=1;html=1;rounded=0;startArrow=none;" parent="1" source="hC-5yDcVV3wV5Di_Mccm-3" edge="1">
          <mxGeometry width="50" height="50" relative="1" as="geometry">
            <mxPoint x="320" y="970" as="sourcePoint" />
            <mxPoint x="320.00231196054256" y="717.5" as="targetPoint" />
          </mxGeometry>
        </mxCell>
        <mxCell id="mmEia4qdqGNQ3zO4Y7I0-100" value="" style="endArrow=none;dashed=1;html=1;rounded=0;startArrow=none;entryX=1;entryY=0.5;entryDx=0;entryDy=0;" parent="1" source="0Yaqg59yCP8CiuaYKTtR-97" target="0Yaqg59yCP8CiuaYKTtR-71" edge="1">
          <mxGeometry width="50" height="50" relative="1" as="geometry">
            <mxPoint x="539" y="680" as="sourcePoint" />
            <mxPoint x="539.5" y="806" as="targetPoint" />
          </mxGeometry>
        </mxCell>
        <mxCell id="mmEia4qdqGNQ3zO4Y7I0-119" value="" style="endArrow=none;dashed=1;html=1;rounded=0;startArrow=none;" parent="1" source="E_oI5wvVmsvSm2quck6C-113" edge="1">
          <mxGeometry width="50" height="50" relative="1" as="geometry">
            <mxPoint x="320" y="2300" as="sourcePoint" />
            <mxPoint x="320.0050000000001" y="950.0549999999998" as="targetPoint" />
          </mxGeometry>
        </mxCell>
        <mxCell id="mmEia4qdqGNQ3zO4Y7I0-121" value="" style="endArrow=none;dashed=1;html=1;rounded=0;startArrow=none;" parent="1" source="hC-5yDcVV3wV5Di_Mccm-16" edge="1">
          <mxGeometry width="50" height="50" relative="1" as="geometry">
            <mxPoint x="538" y="1078" as="sourcePoint" />
            <mxPoint x="538" y="838" as="targetPoint" />
          </mxGeometry>
        </mxCell>
        <mxCell id="0Yaqg59yCP8CiuaYKTtR-4" value="" style="endArrow=none;dashed=1;html=1;rounded=0;startArrow=none;" parent="1" target="0Yaqg59yCP8CiuaYKTtR-3" edge="1">
          <mxGeometry width="50" height="50" relative="1" as="geometry">
            <mxPoint x="105" y="524" as="sourcePoint" />
            <mxPoint x="105" y="369" as="targetPoint" />
          </mxGeometry>
        </mxCell>
        <mxCell id="0Yaqg59yCP8CiuaYKTtR-3" value="" style="rounded=0;whiteSpace=wrap;html=1;rotation=90;" parent="1" vertex="1">
          <mxGeometry x="53.75" y="470" width="102.5" height="15" as="geometry" />
        </mxCell>
        <mxCell id="0Yaqg59yCP8CiuaYKTtR-8" value="" style="endArrow=none;dashed=1;html=1;rounded=0;startArrow=none;" parent="1" target="0Yaqg59yCP8CiuaYKTtR-6" edge="1">
          <mxGeometry width="50" height="50" relative="1" as="geometry">
            <mxPoint x="320" y="524" as="sourcePoint" />
            <mxPoint x="320" y="370" as="targetPoint" />
          </mxGeometry>
        </mxCell>
        <mxCell id="0Yaqg59yCP8CiuaYKTtR-6" value="" style="rounded=0;whiteSpace=wrap;html=1;rotation=90;" parent="1" vertex="1">
          <mxGeometry x="266.57" y="469" width="106.87" height="15" as="geometry" />
        </mxCell>
        <mxCell id="0Yaqg59yCP8CiuaYKTtR-9" value="" style="html=1;verticalAlign=bottom;endArrow=open;dashed=1;endSize=8;edgeStyle=elbowEdgeStyle;elbow=vertical;curved=0;rounded=0;startArrow=none;" parent="1" source="0Yaqg59yCP8CiuaYKTtR-11" edge="1">
          <mxGeometry x="-1" y="-355" relative="1" as="geometry">
            <mxPoint x="310" y="467" as="sourcePoint" />
            <mxPoint x="110" y="467" as="targetPoint" />
            <mxPoint x="350" y="295" as="offset" />
          </mxGeometry>
        </mxCell>
        <mxCell id="0Yaqg59yCP8CiuaYKTtR-10" value="" style="html=1;verticalAlign=bottom;endArrow=none;dashed=1;endSize=8;edgeStyle=elbowEdgeStyle;elbow=vertical;curved=0;rounded=0;" parent="1" target="0Yaqg59yCP8CiuaYKTtR-11" edge="1">
          <mxGeometry x="-1" y="-355" relative="1" as="geometry">
            <mxPoint x="310" y="467" as="sourcePoint" />
            <mxPoint x="110" y="467" as="targetPoint" />
            <mxPoint x="350" y="295" as="offset" />
          </mxGeometry>
        </mxCell>
        <mxCell id="0Yaqg59yCP8CiuaYKTtR-11" value="Render Registration Page" style="text;html=1;strokeColor=none;fillColor=none;align=center;verticalAlign=middle;whiteSpace=wrap;rounded=0;" parent="1" vertex="1">
          <mxGeometry x="140" y="452" width="150" height="30" as="geometry" />
        </mxCell>
        <mxCell id="0Yaqg59yCP8CiuaYKTtR-17" value="" style="endArrow=none;dashed=1;html=1;rounded=0;exitX=0.003;exitY=0.5;exitDx=0;exitDy=0;exitPerimeter=0;" parent="1" edge="1">
          <mxGeometry width="50" height="50" relative="1" as="geometry">
            <mxPoint x="-10" y="407" as="sourcePoint" />
            <mxPoint x="278" y="407" as="targetPoint" />
          </mxGeometry>
        </mxCell>
        <mxCell id="0Yaqg59yCP8CiuaYKTtR-18" value="" style="endArrow=none;dashed=1;html=1;rounded=0;entryX=0.999;entryY=0.682;entryDx=0;entryDy=0;entryPerimeter=0;" parent="1" edge="1">
          <mxGeometry width="50" height="50" relative="1" as="geometry">
            <mxPoint x="280" y="407" as="sourcePoint" />
            <mxPoint x="679.31" y="407.08000000000004" as="targetPoint" />
          </mxGeometry>
        </mxCell>
        <mxCell id="0Yaqg59yCP8CiuaYKTtR-19" value="" style="endArrow=classic;html=1;rounded=0;" parent="1" edge="1">
          <mxGeometry width="50" height="50" relative="1" as="geometry">
            <mxPoint x="112" y="201" as="sourcePoint" />
            <mxPoint x="312" y="201" as="targetPoint" />
          </mxGeometry>
        </mxCell>
        <mxCell id="0Yaqg59yCP8CiuaYKTtR-21" value="Login Details" style="text;html=1;align=center;verticalAlign=middle;resizable=0;points=[];autosize=1;strokeColor=none;fillColor=none;" parent="1" vertex="1">
          <mxGeometry x="165" y="178" width="90" height="30" as="geometry" />
        </mxCell>
        <mxCell id="0Yaqg59yCP8CiuaYKTtR-22" value="" style="endArrow=classic;html=1;rounded=0;exitX=0.815;exitY=0.033;exitDx=0;exitDy=0;exitPerimeter=0;" parent="1" edge="1">
          <mxGeometry width="50" height="50" relative="1" as="geometry">
            <mxPoint x="329" y="202" as="sourcePoint" />
            <mxPoint x="530" y="202" as="targetPoint" />
          </mxGeometry>
        </mxCell>
        <mxCell id="0Yaqg59yCP8CiuaYKTtR-23" value="Validate Details" style="text;html=1;align=center;verticalAlign=middle;resizable=0;points=[];autosize=1;strokeColor=none;fillColor=none;" parent="1" vertex="1">
          <mxGeometry x="372" y="179" width="110" height="30" as="geometry" />
        </mxCell>
        <mxCell id="0Yaqg59yCP8CiuaYKTtR-24" value="" style="rounded=0;whiteSpace=wrap;html=1;rotation=90;" parent="1" vertex="1">
          <mxGeometry x="496.54" y="220.53" width="85.93" height="15" as="geometry" />
        </mxCell>
        <mxCell id="0Yaqg59yCP8CiuaYKTtR-27" value="Verify Details" style="text;html=1;align=center;verticalAlign=middle;resizable=0;points=[];autosize=1;strokeColor=none;fillColor=none;" parent="1" vertex="1">
          <mxGeometry x="597" y="199" width="90" height="30" as="geometry" />
        </mxCell>
        <mxCell id="0Yaqg59yCP8CiuaYKTtR-28" style="edgeStyle=orthogonalEdgeStyle;rounded=0;orthogonalLoop=1;jettySize=auto;html=1;exitX=0.25;exitY=0;exitDx=0;exitDy=0;entryX=0.5;entryY=0;entryDx=0;entryDy=0;" parent="1" edge="1">
          <mxGeometry relative="1" as="geometry">
            <mxPoint x="547.0050000000001" y="201.5474999999999" as="sourcePoint" />
            <mxPoint x="547.0050000000001" y="223.02999999999997" as="targetPoint" />
            <Array as="points">
              <mxPoint x="602" y="202" />
              <mxPoint x="602" y="223" />
            </Array>
          </mxGeometry>
        </mxCell>
        <mxCell id="0Yaqg59yCP8CiuaYKTtR-30" value="" style="html=1;verticalAlign=bottom;endArrow=open;dashed=1;endSize=8;edgeStyle=elbowEdgeStyle;elbow=vertical;curved=0;rounded=0;startArrow=none;" parent="1" source="0Yaqg59yCP8CiuaYKTtR-32" edge="1">
          <mxGeometry x="-1" y="-355" relative="1" as="geometry">
            <mxPoint x="527" y="265" as="sourcePoint" />
            <mxPoint x="327" y="265" as="targetPoint" />
            <mxPoint x="350" y="295" as="offset" />
          </mxGeometry>
        </mxCell>
        <mxCell id="0Yaqg59yCP8CiuaYKTtR-31" value="" style="html=1;verticalAlign=bottom;endArrow=none;dashed=1;endSize=8;edgeStyle=elbowEdgeStyle;elbow=vertical;curved=0;rounded=0;" parent="1" edge="1">
          <mxGeometry x="-1" y="-355" relative="1" as="geometry">
            <mxPoint x="529" y="265" as="sourcePoint" />
            <mxPoint x="489" y="265" as="targetPoint" />
            <mxPoint x="350" y="295" as="offset" />
          </mxGeometry>
        </mxCell>
        <mxCell id="0Yaqg59yCP8CiuaYKTtR-32" value="Details are correct" style="text;html=1;strokeColor=none;fillColor=none;align=center;verticalAlign=middle;whiteSpace=wrap;rounded=0;" parent="1" vertex="1">
          <mxGeometry x="377" y="250" width="110" height="30" as="geometry" />
        </mxCell>
        <mxCell id="0Yaqg59yCP8CiuaYKTtR-33" value="" style="html=1;verticalAlign=bottom;endArrow=open;dashed=1;endSize=8;edgeStyle=elbowEdgeStyle;elbow=vertical;curved=0;rounded=0;startArrow=none;" parent="1" source="0Yaqg59yCP8CiuaYKTtR-35" edge="1">
          <mxGeometry x="-1" y="-355" relative="1" as="geometry">
            <mxPoint x="313" y="265" as="sourcePoint" />
            <mxPoint x="113" y="265" as="targetPoint" />
            <mxPoint x="350" y="295" as="offset" />
          </mxGeometry>
        </mxCell>
        <mxCell id="0Yaqg59yCP8CiuaYKTtR-34" value="" style="html=1;verticalAlign=bottom;endArrow=none;dashed=1;endSize=8;edgeStyle=elbowEdgeStyle;elbow=vertical;curved=0;rounded=0;" parent="1" target="0Yaqg59yCP8CiuaYKTtR-35" edge="1">
          <mxGeometry x="-1" y="-355" relative="1" as="geometry">
            <mxPoint x="313" y="265" as="sourcePoint" />
            <mxPoint x="113" y="265" as="targetPoint" />
            <mxPoint x="350" y="295" as="offset" />
          </mxGeometry>
        </mxCell>
        <mxCell id="0Yaqg59yCP8CiuaYKTtR-35" value="Render Home Page" style="text;html=1;strokeColor=none;fillColor=none;align=center;verticalAlign=middle;whiteSpace=wrap;rounded=0;" parent="1" vertex="1">
          <mxGeometry x="163" y="250" width="110" height="30" as="geometry" />
        </mxCell>
        <mxCell id="0Yaqg59yCP8CiuaYKTtR-37" value="" style="endArrow=none;dashed=1;html=1;rounded=0;startArrow=none;" parent="1" target="0Yaqg59yCP8CiuaYKTtR-36" edge="1">
          <mxGeometry width="50" height="50" relative="1" as="geometry">
            <mxPoint x="105" y="380" as="sourcePoint" />
            <mxPoint x="105" y="229" as="targetPoint" />
          </mxGeometry>
        </mxCell>
        <mxCell id="0Yaqg59yCP8CiuaYKTtR-36" value="" style="rounded=0;whiteSpace=wrap;html=1;rotation=90;" parent="1" vertex="1">
          <mxGeometry x="75.86" y="268.36" width="58.28" height="15" as="geometry" />
        </mxCell>
        <mxCell id="0Yaqg59yCP8CiuaYKTtR-38" value="alt" style="shape=umlFrame;whiteSpace=wrap;html=1;pointerEvents=0;" parent="1" vertex="1">
          <mxGeometry x="9" y="235.53" width="650" height="154.47" as="geometry" />
        </mxCell>
        <mxCell id="0Yaqg59yCP8CiuaYKTtR-39" value="" style="endArrow=none;dashed=1;html=1;rounded=0;exitX=0.003;exitY=0.5;exitDx=0;exitDy=0;exitPerimeter=0;" parent="1" edge="1">
          <mxGeometry width="50" height="50" relative="1" as="geometry">
            <mxPoint x="9" y="317" as="sourcePoint" />
            <mxPoint x="297" y="317" as="targetPoint" />
          </mxGeometry>
        </mxCell>
        <mxCell id="0Yaqg59yCP8CiuaYKTtR-40" value="" style="endArrow=none;dashed=1;html=1;rounded=0;entryX=1.003;entryY=0.603;entryDx=0;entryDy=0;entryPerimeter=0;" parent="1" edge="1">
          <mxGeometry width="50" height="50" relative="1" as="geometry">
            <mxPoint x="297" y="317" as="sourcePoint" />
            <mxPoint x="658.9499999999998" y="316.94999999999993" as="targetPoint" />
          </mxGeometry>
        </mxCell>
        <mxCell id="0Yaqg59yCP8CiuaYKTtR-42" value="" style="endArrow=none;dashed=1;html=1;rounded=0;startArrow=none;" parent="1" source="0Yaqg59yCP8CiuaYKTtR-6" target="0Yaqg59yCP8CiuaYKTtR-41" edge="1">
          <mxGeometry width="50" height="50" relative="1" as="geometry">
            <mxPoint x="320" y="385" as="sourcePoint" />
            <mxPoint x="320" y="231" as="targetPoint" />
          </mxGeometry>
        </mxCell>
        <mxCell id="0Yaqg59yCP8CiuaYKTtR-41" value="" style="rounded=0;whiteSpace=wrap;html=1;rotation=90;" parent="1" vertex="1">
          <mxGeometry x="290.86" y="268.36" width="58.28" height="15" as="geometry" />
        </mxCell>
        <mxCell id="0Yaqg59yCP8CiuaYKTtR-44" value="" style="endArrow=none;dashed=1;html=1;rounded=0;startArrow=none;" parent="1" source="0Yaqg59yCP8CiuaYKTtR-3" edge="1">
          <mxGeometry width="50" height="50" relative="1" as="geometry">
            <mxPoint x="105" y="387" as="sourcePoint" />
            <mxPoint x="105.00000000000023" y="376.6399999999999" as="targetPoint" />
          </mxGeometry>
        </mxCell>
        <mxCell id="0Yaqg59yCP8CiuaYKTtR-61" value="" style="html=1;verticalAlign=bottom;endArrow=open;dashed=1;endSize=8;edgeStyle=elbowEdgeStyle;elbow=vertical;curved=0;rounded=0;startArrow=none;" parent="1" source="0Yaqg59yCP8CiuaYKTtR-63" edge="1">
          <mxGeometry x="-1" y="-355" relative="1" as="geometry">
            <mxPoint x="527" y="345" as="sourcePoint" />
            <mxPoint x="327" y="345" as="targetPoint" />
            <mxPoint x="350" y="295" as="offset" />
          </mxGeometry>
        </mxCell>
        <mxCell id="0Yaqg59yCP8CiuaYKTtR-62" value="" style="html=1;verticalAlign=bottom;endArrow=none;dashed=1;endSize=8;edgeStyle=elbowEdgeStyle;elbow=vertical;curved=0;rounded=0;" parent="1" edge="1">
          <mxGeometry x="-1" y="-355" relative="1" as="geometry">
            <mxPoint x="529" y="345" as="sourcePoint" />
            <mxPoint x="502" y="345" as="targetPoint" />
            <mxPoint x="350" y="295" as="offset" />
          </mxGeometry>
        </mxCell>
        <mxCell id="0Yaqg59yCP8CiuaYKTtR-63" value="Details are not correct" style="text;html=1;strokeColor=none;fillColor=none;align=center;verticalAlign=middle;whiteSpace=wrap;rounded=0;" parent="1" vertex="1">
          <mxGeometry x="370" y="330" width="130" height="30" as="geometry" />
        </mxCell>
        <mxCell id="0Yaqg59yCP8CiuaYKTtR-64" value="" style="html=1;verticalAlign=bottom;endArrow=open;dashed=1;endSize=8;edgeStyle=elbowEdgeStyle;elbow=vertical;curved=0;rounded=0;startArrow=none;" parent="1" source="0Yaqg59yCP8CiuaYKTtR-66" edge="1">
          <mxGeometry x="-1" y="-355" relative="1" as="geometry">
            <mxPoint x="313" y="345" as="sourcePoint" />
            <mxPoint x="113" y="345" as="targetPoint" />
            <mxPoint x="350" y="295" as="offset" />
          </mxGeometry>
        </mxCell>
        <mxCell id="0Yaqg59yCP8CiuaYKTtR-65" value="" style="html=1;verticalAlign=bottom;endArrow=none;dashed=1;endSize=8;edgeStyle=elbowEdgeStyle;elbow=vertical;curved=0;rounded=0;" parent="1" target="0Yaqg59yCP8CiuaYKTtR-66" edge="1">
          <mxGeometry x="-1" y="-355" relative="1" as="geometry">
            <mxPoint x="313" y="345" as="sourcePoint" />
            <mxPoint x="113" y="345" as="targetPoint" />
            <mxPoint x="350" y="295" as="offset" />
          </mxGeometry>
        </mxCell>
        <mxCell id="0Yaqg59yCP8CiuaYKTtR-66" value="Error Message Details are invalid" style="text;html=1;strokeColor=none;fillColor=none;align=center;verticalAlign=middle;whiteSpace=wrap;rounded=0;" parent="1" vertex="1">
          <mxGeometry x="163" y="330" width="110" height="30" as="geometry" />
        </mxCell>
        <mxCell id="0Yaqg59yCP8CiuaYKTtR-67" value="" style="rounded=0;whiteSpace=wrap;html=1;rotation=90;" parent="1" vertex="1">
          <mxGeometry x="75.86" y="348.36" width="58.28" height="15" as="geometry" />
        </mxCell>
        <mxCell id="0Yaqg59yCP8CiuaYKTtR-68" value="" style="rounded=0;whiteSpace=wrap;html=1;rotation=90;" parent="1" vertex="1">
          <mxGeometry x="290.86" y="348.36" width="58.28" height="15" as="geometry" />
        </mxCell>
        <mxCell id="0Yaqg59yCP8CiuaYKTtR-70" value="" style="endArrow=none;dashed=1;html=1;rounded=0;startArrow=none;" parent="1" target="0Yaqg59yCP8CiuaYKTtR-69" edge="1">
          <mxGeometry width="50" height="50" relative="1" as="geometry">
            <mxPoint x="540" y="380" as="sourcePoint" />
            <mxPoint x="540" y="80" as="targetPoint" />
          </mxGeometry>
        </mxCell>
        <mxCell id="0Yaqg59yCP8CiuaYKTtR-69" value="" style="rounded=0;whiteSpace=wrap;html=1;rotation=90;" parent="1" vertex="1">
          <mxGeometry x="510.99" y="348" width="58.28" height="15" as="geometry" />
        </mxCell>
        <mxCell id="0Yaqg59yCP8CiuaYKTtR-71" value="" style="rounded=0;whiteSpace=wrap;html=1;rotation=90;" parent="1" vertex="1">
          <mxGeometry x="509.97" y="508" width="58.28" height="15" as="geometry" />
        </mxCell>
        <mxCell id="0Yaqg59yCP8CiuaYKTtR-74" value="" style="endArrow=classic;html=1;rounded=0;exitX=0.815;exitY=0.033;exitDx=0;exitDy=0;exitPerimeter=0;" parent="1" edge="1">
          <mxGeometry width="50" height="50" relative="1" as="geometry">
            <mxPoint x="327.5" y="503" as="sourcePoint" />
            <mxPoint x="528.5" y="503" as="targetPoint" />
          </mxGeometry>
        </mxCell>
        <mxCell id="0Yaqg59yCP8CiuaYKTtR-75" value="Storing Details" style="text;html=1;align=center;verticalAlign=middle;resizable=0;points=[];autosize=1;strokeColor=none;fillColor=none;" parent="1" vertex="1">
          <mxGeometry x="375.5" y="480" width="100" height="30" as="geometry" />
        </mxCell>
        <mxCell id="0Yaqg59yCP8CiuaYKTtR-76" value="" style="endArrow=classic;html=1;rounded=0;exitX=0.815;exitY=0.033;exitDx=0;exitDy=0;exitPerimeter=0;" parent="1" edge="1">
          <mxGeometry width="50" height="50" relative="1" as="geometry">
            <mxPoint x="113.5" y="503" as="sourcePoint" />
            <mxPoint x="314.5" y="503" as="targetPoint" />
          </mxGeometry>
        </mxCell>
        <mxCell id="0Yaqg59yCP8CiuaYKTtR-77" value="Registration Details" style="text;html=1;align=center;verticalAlign=middle;resizable=0;points=[];autosize=1;strokeColor=none;fillColor=none;" parent="1" vertex="1">
          <mxGeometry x="146.5" y="480" width="130" height="30" as="geometry" />
        </mxCell>
        <mxCell id="0Yaqg59yCP8CiuaYKTtR-78" value="Store Details" style="text;html=1;align=center;verticalAlign=middle;resizable=0;points=[];autosize=1;strokeColor=none;fillColor=none;" parent="1" vertex="1">
          <mxGeometry x="597" y="500.5" width="90" height="30" as="geometry" />
        </mxCell>
        <mxCell id="0Yaqg59yCP8CiuaYKTtR-79" style="edgeStyle=orthogonalEdgeStyle;rounded=0;orthogonalLoop=1;jettySize=auto;html=1;exitX=0.25;exitY=0;exitDx=0;exitDy=0;entryX=0.5;entryY=0;entryDx=0;entryDy=0;" parent="1" edge="1">
          <mxGeometry relative="1" as="geometry">
            <mxPoint x="547.0050000000001" y="503.0474999999999" as="sourcePoint" />
            <mxPoint x="547.0050000000001" y="524.53" as="targetPoint" />
            <Array as="points">
              <mxPoint x="602" y="503.5" />
              <mxPoint x="602" y="524.5" />
            </Array>
          </mxGeometry>
        </mxCell>
        <mxCell id="0Yaqg59yCP8CiuaYKTtR-82" value="" style="endArrow=none;dashed=1;html=1;rounded=0;startArrow=none;" parent="1" target="0Yaqg59yCP8CiuaYKTtR-81" edge="1">
          <mxGeometry width="50" height="50" relative="1" as="geometry">
            <mxPoint x="105" y="700" as="sourcePoint" />
            <mxPoint x="105" y="378.5" as="targetPoint" />
          </mxGeometry>
        </mxCell>
        <mxCell id="0Yaqg59yCP8CiuaYKTtR-81" value="" style="rounded=0;whiteSpace=wrap;html=1;rotation=90;" parent="1" vertex="1">
          <mxGeometry x="51.56" y="641" width="106.87" height="15" as="geometry" />
        </mxCell>
        <mxCell id="0Yaqg59yCP8CiuaYKTtR-83" value="" style="endArrow=none;dashed=1;html=1;rounded=0;startArrow=none;entryX=1;entryY=0.5;entryDx=0;entryDy=0;" parent="1" edge="1">
          <mxGeometry width="50" height="50" relative="1" as="geometry">
            <mxPoint x="538.0429946712247" y="864.625" as="sourcePoint" />
            <mxPoint x="539.1149999999998" y="676.3950000000004" as="targetPoint" />
          </mxGeometry>
        </mxCell>
        <mxCell id="0Yaqg59yCP8CiuaYKTtR-84" value="" style="endArrow=classic;html=1;rounded=0;entryX=0.25;entryY=1;entryDx=0;entryDy=0;exitX=0.396;exitY=-0.157;exitDx=0;exitDy=0;exitPerimeter=0;" parent="1" edge="1">
          <mxGeometry width="50" height="50" relative="1" as="geometry">
            <mxPoint x="327.9949999999999" y="580.9805600000002" as="sourcePoint" />
            <mxPoint x="743.6350000000002" y="580.5724999999998" as="targetPoint" />
          </mxGeometry>
        </mxCell>
        <mxCell id="0Yaqg59yCP8CiuaYKTtR-85" value="Send Email for Verification" style="text;html=1;align=center;verticalAlign=middle;resizable=0;points=[];autosize=1;strokeColor=none;fillColor=none;" parent="1" vertex="1">
          <mxGeometry x="353" y="558" width="160" height="30" as="geometry" />
        </mxCell>
        <mxCell id="0Yaqg59yCP8CiuaYKTtR-86" value="" style="endArrow=classic;html=1;rounded=0;entryX=0.895;entryY=1.176;entryDx=0;entryDy=0;entryPerimeter=0;exitX=0.131;exitY=0.974;exitDx=0;exitDy=0;exitPerimeter=0;" parent="1" edge="1">
          <mxGeometry width="50" height="50" relative="1" as="geometry">
            <mxPoint x="114" y="688" as="sourcePoint" />
            <mxPoint x="743.0050000000001" y="687.04655" as="targetPoint" />
          </mxGeometry>
        </mxCell>
        <mxCell id="0Yaqg59yCP8CiuaYKTtR-87" value="Verify the email by clicking on the link" style="text;html=1;align=center;verticalAlign=middle;resizable=0;points=[];autosize=1;strokeColor=none;fillColor=none;" parent="1" vertex="1">
          <mxGeometry x="317" y="664.5" width="220" height="30" as="geometry" />
        </mxCell>
        <mxCell id="0Yaqg59yCP8CiuaYKTtR-88" value="Update Status" style="text;html=1;align=center;verticalAlign=middle;resizable=0;points=[];autosize=1;strokeColor=none;fillColor=none;" parent="1" vertex="1">
          <mxGeometry x="592" y="741" width="100" height="30" as="geometry" />
        </mxCell>
        <mxCell id="0Yaqg59yCP8CiuaYKTtR-89" style="edgeStyle=orthogonalEdgeStyle;rounded=0;orthogonalLoop=1;jettySize=auto;html=1;exitX=0.25;exitY=0;exitDx=0;exitDy=0;entryX=0.5;entryY=0;entryDx=0;entryDy=0;" parent="1" edge="1">
          <mxGeometry relative="1" as="geometry">
            <mxPoint x="546.0050000000001" y="743.5474999999999" as="sourcePoint" />
            <mxPoint x="546.0050000000001" y="765.03" as="targetPoint" />
            <Array as="points">
              <mxPoint x="601" y="744" />
              <mxPoint x="601" y="765" />
            </Array>
          </mxGeometry>
        </mxCell>
        <mxCell id="0Yaqg59yCP8CiuaYKTtR-90" value="" style="rounded=1;whiteSpace=wrap;html=1;" parent="1" vertex="1">
          <mxGeometry x="693" y="20" width="120" height="60" as="geometry" />
        </mxCell>
        <mxCell id="0Yaqg59yCP8CiuaYKTtR-91" value="Email" style="text;html=1;strokeColor=none;fillColor=none;align=center;verticalAlign=middle;whiteSpace=wrap;rounded=0;" parent="1" vertex="1">
          <mxGeometry x="723" y="35" width="60" height="30" as="geometry" />
        </mxCell>
        <mxCell id="0Yaqg59yCP8CiuaYKTtR-92" value="" style="endArrow=none;dashed=1;html=1;rounded=0;startArrow=none;" parent="1" source="0Yaqg59yCP8CiuaYKTtR-93" edge="1">
          <mxGeometry width="50" height="50" relative="1" as="geometry">
            <mxPoint x="753" y="810" as="sourcePoint" />
            <mxPoint x="753" y="80" as="targetPoint" />
          </mxGeometry>
        </mxCell>
        <mxCell id="0Yaqg59yCP8CiuaYKTtR-94" value="" style="endArrow=none;dashed=1;html=1;rounded=0;startArrow=none;" parent="1" target="0Yaqg59yCP8CiuaYKTtR-93" edge="1">
          <mxGeometry width="50" height="50" relative="1" as="geometry">
            <mxPoint x="750" y="2610" as="sourcePoint" />
            <mxPoint x="753" y="80" as="targetPoint" />
          </mxGeometry>
        </mxCell>
        <mxCell id="0Yaqg59yCP8CiuaYKTtR-93" value="" style="rounded=0;whiteSpace=wrap;html=1;rotation=90;" parent="1" vertex="1">
          <mxGeometry x="663.03" y="638.09" width="178.25" height="15" as="geometry" />
        </mxCell>
        <mxCell id="0Yaqg59yCP8CiuaYKTtR-96" value="" style="endArrow=none;dashed=1;html=1;rounded=0;startArrow=none;" parent="1" target="0Yaqg59yCP8CiuaYKTtR-95" edge="1">
          <mxGeometry width="50" height="50" relative="1" as="geometry">
            <mxPoint x="320" y="720" as="sourcePoint" />
            <mxPoint x="320.00405569782356" y="480.375" as="targetPoint" />
          </mxGeometry>
        </mxCell>
        <mxCell id="0Yaqg59yCP8CiuaYKTtR-95" value="" style="rounded=0;whiteSpace=wrap;html=1;rotation=90;" parent="1" vertex="1">
          <mxGeometry x="291.21" y="579.29" width="55.86" height="15" as="geometry" />
        </mxCell>
        <mxCell id="0Yaqg59yCP8CiuaYKTtR-98" value="" style="endArrow=none;dashed=1;html=1;rounded=0;startArrow=none;entryX=1;entryY=0.5;entryDx=0;entryDy=0;" parent="1" target="0Yaqg59yCP8CiuaYKTtR-97" edge="1">
          <mxGeometry width="50" height="50" relative="1" as="geometry">
            <mxPoint x="538" y="724" as="sourcePoint" />
            <mxPoint x="538" y="589" as="targetPoint" />
          </mxGeometry>
        </mxCell>
        <mxCell id="0Yaqg59yCP8CiuaYKTtR-97" value="" style="rounded=0;whiteSpace=wrap;html=1;rotation=90;" parent="1" vertex="1">
          <mxGeometry x="499.11" y="735" width="80.03" height="15" as="geometry" />
        </mxCell>
        <mxCell id="0Yaqg59yCP8CiuaYKTtR-100" value="Send Status of verification" style="text;html=1;align=center;verticalAlign=middle;resizable=0;points=[];autosize=1;strokeColor=none;fillColor=none;" parent="1" vertex="1">
          <mxGeometry x="566" y="605" width="160" height="30" as="geometry" />
        </mxCell>
        <mxCell id="0Yaqg59yCP8CiuaYKTtR-168" value="" style="endArrow=classic;html=1;rounded=0;entryX=0.14;entryY=-0.1;entryDx=0;entryDy=0;entryPerimeter=0;exitX=0.57;exitY=-0.167;exitDx=0;exitDy=0;exitPerimeter=0;" parent="1" edge="1">
          <mxGeometry width="50" height="50" relative="1" as="geometry">
            <mxPoint x="744.11" y="656.13" as="sourcePoint" />
            <mxPoint x="114" y="655.9809" as="targetPoint" />
          </mxGeometry>
        </mxCell>
        <mxCell id="0Yaqg59yCP8CiuaYKTtR-169" value="Show email and ask for verify" style="text;html=1;align=center;verticalAlign=middle;resizable=0;points=[];autosize=1;strokeColor=none;fillColor=none;" parent="1" vertex="1">
          <mxGeometry x="350" y="633.5" width="180" height="30" as="geometry" />
        </mxCell>
        <mxCell id="0Yaqg59yCP8CiuaYKTtR-171" value="" style="endArrow=classic;html=1;rounded=0;exitX=0.57;exitY=-0.167;exitDx=0;exitDy=0;exitPerimeter=0;entryX=0.094;entryY=0.042;entryDx=0;entryDy=0;entryPerimeter=0;" parent="1" edge="1">
          <mxGeometry width="50" height="50" relative="1" as="geometry">
            <mxPoint x="744.0500000000001" y="717.15" as="sourcePoint" />
            <mxPoint x="545.9949999999999" y="717.0078200000003" as="targetPoint" />
          </mxGeometry>
        </mxCell>
        <mxCell id="0Yaqg59yCP8CiuaYKTtR-172" value="Verification Status" style="text;html=1;align=center;verticalAlign=middle;resizable=0;points=[];autosize=1;strokeColor=none;fillColor=none;" parent="1" vertex="1">
          <mxGeometry x="580" y="695" width="120" height="30" as="geometry" />
        </mxCell>
        <mxCell id="hC-5yDcVV3wV5Di_Mccm-2" value="" style="endArrow=none;dashed=1;html=1;rounded=0;startArrow=none;" parent="1" source="E_oI5wvVmsvSm2quck6C-111" target="hC-5yDcVV3wV5Di_Mccm-1" edge="1">
          <mxGeometry width="50" height="50" relative="1" as="geometry">
            <mxPoint x="105" y="2301" as="sourcePoint" />
            <mxPoint x="104.99925414364634" y="673" as="targetPoint" />
          </mxGeometry>
        </mxCell>
        <mxCell id="hC-5yDcVV3wV5Di_Mccm-1" value="" style="rounded=0;whiteSpace=wrap;html=1;rotation=90;" parent="1" vertex="1">
          <mxGeometry x="-198.63" y="1111.22" width="607.29" height="15" as="geometry" />
        </mxCell>
        <mxCell id="hC-5yDcVV3wV5Di_Mccm-4" value="" style="endArrow=none;dashed=1;html=1;rounded=0;startArrow=none;" parent="1" target="hC-5yDcVV3wV5Di_Mccm-3" edge="1">
          <mxGeometry width="50" height="50" relative="1" as="geometry">
            <mxPoint x="320" y="982" as="sourcePoint" />
            <mxPoint x="320.00231196054256" y="729.5" as="targetPoint" />
          </mxGeometry>
        </mxCell>
        <mxCell id="hC-5yDcVV3wV5Di_Mccm-3" value="" style="rounded=0;whiteSpace=wrap;html=1;rotation=90;" parent="1" vertex="1">
          <mxGeometry x="16.2" y="1111.37" width="607.61" height="15" as="geometry" />
        </mxCell>
        <mxCell id="hC-5yDcVV3wV5Di_Mccm-5" value="" style="html=1;verticalAlign=bottom;endArrow=open;dashed=1;endSize=8;edgeStyle=elbowEdgeStyle;elbow=vertical;curved=0;rounded=0;startArrow=none;" parent="1" source="hC-5yDcVV3wV5Di_Mccm-7" edge="1">
          <mxGeometry x="-1" y="-355" relative="1" as="geometry">
            <mxPoint x="311.5" y="861" as="sourcePoint" />
            <mxPoint x="111.5" y="861" as="targetPoint" />
            <mxPoint x="350" y="295" as="offset" />
          </mxGeometry>
        </mxCell>
        <mxCell id="hC-5yDcVV3wV5Di_Mccm-6" value="" style="html=1;verticalAlign=bottom;endArrow=none;dashed=1;endSize=8;edgeStyle=elbowEdgeStyle;elbow=vertical;curved=0;rounded=0;" parent="1" target="hC-5yDcVV3wV5Di_Mccm-7" edge="1">
          <mxGeometry x="-1" y="-355" relative="1" as="geometry">
            <mxPoint x="311.5" y="861" as="sourcePoint" />
            <mxPoint x="111.5" y="861" as="targetPoint" />
            <mxPoint x="350" y="295" as="offset" />
          </mxGeometry>
        </mxCell>
        <mxCell id="hC-5yDcVV3wV5Di_Mccm-7" value="Render Home Page" style="text;html=1;strokeColor=none;fillColor=none;align=center;verticalAlign=middle;whiteSpace=wrap;rounded=0;" parent="1" vertex="1">
          <mxGeometry x="161.5" y="846" width="110" height="30" as="geometry" />
        </mxCell>
        <mxCell id="hC-5yDcVV3wV5Di_Mccm-8" value="" style="endArrow=classic;html=1;rounded=0;exitX=0.57;exitY=-0.167;exitDx=0;exitDy=0;exitPerimeter=0;" parent="1" edge="1">
          <mxGeometry width="50" height="50" relative="1" as="geometry">
            <mxPoint x="111" y="903" as="sourcePoint" />
            <mxPoint x="312.5300000000001" y="903.15" as="targetPoint" />
          </mxGeometry>
        </mxCell>
        <mxCell id="hC-5yDcVV3wV5Di_Mccm-9" value="Add Medicine" style="text;html=1;align=center;verticalAlign=middle;resizable=0;points=[];autosize=1;strokeColor=none;fillColor=none;" parent="1" vertex="1">
          <mxGeometry x="157.48000000000002" y="881" width="100" height="30" as="geometry" />
        </mxCell>
        <mxCell id="hC-5yDcVV3wV5Di_Mccm-11" value="" style="html=1;verticalAlign=bottom;endArrow=open;dashed=1;endSize=8;edgeStyle=elbowEdgeStyle;elbow=vertical;curved=0;rounded=0;startArrow=none;" parent="1" source="hC-5yDcVV3wV5Di_Mccm-13" edge="1">
          <mxGeometry x="-1" y="-355" relative="1" as="geometry">
            <mxPoint x="311.5" y="937" as="sourcePoint" />
            <mxPoint x="111.5" y="937" as="targetPoint" />
            <mxPoint x="350" y="295" as="offset" />
          </mxGeometry>
        </mxCell>
        <mxCell id="hC-5yDcVV3wV5Di_Mccm-12" value="" style="html=1;verticalAlign=bottom;endArrow=none;dashed=1;endSize=8;edgeStyle=elbowEdgeStyle;elbow=vertical;curved=0;rounded=0;" parent="1" target="hC-5yDcVV3wV5Di_Mccm-13" edge="1">
          <mxGeometry x="-1" y="-355" relative="1" as="geometry">
            <mxPoint x="311.5" y="937" as="sourcePoint" />
            <mxPoint x="111.5" y="937" as="targetPoint" />
            <mxPoint x="350" y="295" as="offset" />
          </mxGeometry>
        </mxCell>
        <mxCell id="hC-5yDcVV3wV5Di_Mccm-13" value="Render Add Medicine Page" style="text;html=1;strokeColor=none;fillColor=none;align=center;verticalAlign=middle;whiteSpace=wrap;rounded=0;" parent="1" vertex="1">
          <mxGeometry x="170" y="922" width="90" height="30" as="geometry" />
        </mxCell>
        <mxCell id="hC-5yDcVV3wV5Di_Mccm-14" value="" style="endArrow=classic;html=1;rounded=0;exitX=0.57;exitY=-0.167;exitDx=0;exitDy=0;exitPerimeter=0;" parent="1" edge="1">
          <mxGeometry width="50" height="50" relative="1" as="geometry">
            <mxPoint x="110.73" y="980" as="sourcePoint" />
            <mxPoint x="312.2600000000001" y="980.15" as="targetPoint" />
          </mxGeometry>
        </mxCell>
        <mxCell id="hC-5yDcVV3wV5Di_Mccm-15" value="Click on image icon to take&lt;br&gt;image of medicine &amp;amp; extract&lt;br&gt;name of medicine" style="text;html=1;align=center;verticalAlign=middle;resizable=0;points=[];autosize=1;strokeColor=none;fillColor=none;" parent="1" vertex="1">
          <mxGeometry x="122.21000000000001" y="957" width="170" height="60" as="geometry" />
        </mxCell>
        <mxCell id="hC-5yDcVV3wV5Di_Mccm-18" value="" style="endArrow=none;dashed=1;html=1;rounded=0;startArrow=none;" parent="1" target="hC-5yDcVV3wV5Di_Mccm-16" edge="1" source="PmyB2ZIpsIppOUHwU6_w-3">
          <mxGeometry width="50" height="50" relative="1" as="geometry">
            <mxPoint x="538" y="2610" as="sourcePoint" />
            <mxPoint x="538" y="838" as="targetPoint" />
          </mxGeometry>
        </mxCell>
        <mxCell id="hC-5yDcVV3wV5Di_Mccm-16" value="" style="rounded=0;whiteSpace=wrap;html=1;rotation=90;" parent="1" vertex="1">
          <mxGeometry x="504.49" y="1201.57" width="66.94" height="15" as="geometry" />
        </mxCell>
        <mxCell id="hC-5yDcVV3wV5Di_Mccm-19" value="" style="endArrow=classic;html=1;rounded=0;exitX=0.57;exitY=-0.167;exitDx=0;exitDy=0;exitPerimeter=0;" parent="1" edge="1">
          <mxGeometry width="50" height="50" relative="1" as="geometry">
            <mxPoint x="328.47" y="1201" as="sourcePoint" />
            <mxPoint x="530.0000000000001" y="1201.15" as="targetPoint" />
          </mxGeometry>
        </mxCell>
        <mxCell id="hC-5yDcVV3wV5Di_Mccm-20" value="Detail with image send to&lt;br&gt;firebase to store" style="text;html=1;align=center;verticalAlign=middle;resizable=0;points=[];autosize=1;strokeColor=none;fillColor=none;" parent="1" vertex="1">
          <mxGeometry x="344.95000000000005" y="1181" width="160" height="40" as="geometry" />
        </mxCell>
        <mxCell id="hC-5yDcVV3wV5Di_Mccm-22" value="Store Medicine&lt;br&gt;Details" style="text;html=1;align=center;verticalAlign=middle;resizable=0;points=[];autosize=1;strokeColor=none;fillColor=none;" parent="1" vertex="1">
          <mxGeometry x="592" y="1189" width="100" height="40" as="geometry" />
        </mxCell>
        <mxCell id="E_oI5wvVmsvSm2quck6C-4" value="" style="html=1;verticalAlign=bottom;endArrow=open;dashed=1;endSize=8;edgeStyle=elbowEdgeStyle;elbow=vertical;curved=0;rounded=0;startArrow=none;" parent="1" source="E_oI5wvVmsvSm2quck6C-6" edge="1">
          <mxGeometry x="-1" y="-355" relative="1" as="geometry">
            <mxPoint x="311.5" y="1041" as="sourcePoint" />
            <mxPoint x="111.5" y="1041" as="targetPoint" />
            <mxPoint x="350" y="295" as="offset" />
          </mxGeometry>
        </mxCell>
        <mxCell id="E_oI5wvVmsvSm2quck6C-5" value="" style="html=1;verticalAlign=bottom;endArrow=none;dashed=1;endSize=8;edgeStyle=elbowEdgeStyle;elbow=vertical;curved=0;rounded=0;" parent="1" target="E_oI5wvVmsvSm2quck6C-6" edge="1">
          <mxGeometry x="-1" y="-355" relative="1" as="geometry">
            <mxPoint x="311.5" y="1041" as="sourcePoint" />
            <mxPoint x="111.5" y="1041" as="targetPoint" />
            <mxPoint x="350" y="295" as="offset" />
          </mxGeometry>
        </mxCell>
        <mxCell id="E_oI5wvVmsvSm2quck6C-6" value="Render OCR Page" style="text;html=1;strokeColor=none;fillColor=none;align=center;verticalAlign=middle;whiteSpace=wrap;rounded=0;" parent="1" vertex="1">
          <mxGeometry x="170" y="1026" width="90" height="30" as="geometry" />
        </mxCell>
        <mxCell id="E_oI5wvVmsvSm2quck6C-7" value="" style="endArrow=classic;html=1;rounded=0;exitX=0.57;exitY=-0.167;exitDx=0;exitDy=0;exitPerimeter=0;" parent="1" edge="1">
          <mxGeometry width="50" height="50" relative="1" as="geometry">
            <mxPoint x="110.73000000000002" y="1201" as="sourcePoint" />
            <mxPoint x="312.2600000000001" y="1201.15" as="targetPoint" />
          </mxGeometry>
        </mxCell>
        <mxCell id="E_oI5wvVmsvSm2quck6C-8" value="Fill other details for medicine" style="text;html=1;align=center;verticalAlign=middle;resizable=0;points=[];autosize=1;strokeColor=none;fillColor=none;" parent="1" vertex="1">
          <mxGeometry x="117.21000000000004" y="1179" width="180" height="30" as="geometry" />
        </mxCell>
        <mxCell id="E_oI5wvVmsvSm2quck6C-10" style="edgeStyle=orthogonalEdgeStyle;rounded=0;orthogonalLoop=1;jettySize=auto;html=1;exitX=0.25;exitY=0;exitDx=0;exitDy=0;entryX=0.5;entryY=0;entryDx=0;entryDy=0;" parent="1" edge="1">
          <mxGeometry relative="1" as="geometry">
            <Array as="points">
              <mxPoint x="600" y="1202" />
              <mxPoint x="600" y="1223" />
            </Array>
            <mxPoint x="546" y="1202" as="sourcePoint" />
            <mxPoint x="546" y="1223" as="targetPoint" />
          </mxGeometry>
        </mxCell>
        <mxCell id="E_oI5wvVmsvSm2quck6C-63" value="" style="rounded=1;whiteSpace=wrap;html=1;" parent="1" vertex="1">
          <mxGeometry x="883" y="19" width="120" height="60" as="geometry" />
        </mxCell>
        <mxCell id="E_oI5wvVmsvSm2quck6C-64" value="OCR" style="text;html=1;strokeColor=none;fillColor=none;align=center;verticalAlign=middle;whiteSpace=wrap;rounded=0;" parent="1" vertex="1">
          <mxGeometry x="913" y="34" width="60" height="30" as="geometry" />
        </mxCell>
        <mxCell id="E_oI5wvVmsvSm2quck6C-65" value="" style="endArrow=none;dashed=1;html=1;rounded=0;startArrow=none;" parent="1" source="E_oI5wvVmsvSm2quck6C-66" edge="1">
          <mxGeometry width="50" height="50" relative="1" as="geometry">
            <mxPoint x="943" y="1638" as="sourcePoint" />
            <mxPoint x="943" y="79" as="targetPoint" />
          </mxGeometry>
        </mxCell>
        <mxCell id="E_oI5wvVmsvSm2quck6C-67" value="" style="endArrow=none;dashed=1;html=1;rounded=0;startArrow=none;" parent="1" target="E_oI5wvVmsvSm2quck6C-66" edge="1">
          <mxGeometry width="50" height="50" relative="1" as="geometry">
            <mxPoint x="940" y="2612.8571428571427" as="sourcePoint" />
            <mxPoint x="943" y="79" as="targetPoint" />
          </mxGeometry>
        </mxCell>
        <mxCell id="E_oI5wvVmsvSm2quck6C-66" value="" style="rounded=0;whiteSpace=wrap;html=1;rotation=90;" parent="1" vertex="1">
          <mxGeometry x="901.47" y="1107.53" width="83.06" height="16" as="geometry" />
        </mxCell>
        <mxCell id="E_oI5wvVmsvSm2quck6C-68" value="" style="endArrow=classic;html=1;rounded=0;exitX=0.57;exitY=-0.167;exitDx=0;exitDy=0;exitPerimeter=0;" parent="1" edge="1">
          <mxGeometry width="50" height="50" relative="1" as="geometry">
            <mxPoint x="110.73000000000002" y="1092" as="sourcePoint" />
            <mxPoint x="312.2600000000001" y="1092.15" as="targetPoint" />
          </mxGeometry>
        </mxCell>
        <mxCell id="E_oI5wvVmsvSm2quck6C-69" value="Click the image of medicine" style="text;html=1;align=center;verticalAlign=middle;resizable=0;points=[];autosize=1;strokeColor=none;fillColor=none;" parent="1" vertex="1">
          <mxGeometry x="122.21000000000004" y="1070" width="170" height="30" as="geometry" />
        </mxCell>
        <mxCell id="E_oI5wvVmsvSm2quck6C-70" value="" style="endArrow=classic;html=1;rounded=0;exitX=0.57;exitY=-0.167;exitDx=0;exitDy=0;exitPerimeter=0;entryX=0.138;entryY=0.9;entryDx=0;entryDy=0;entryPerimeter=0;" parent="1" edge="1">
          <mxGeometry width="50" height="50" relative="1" as="geometry">
            <mxPoint x="327.47" y="1092" as="sourcePoint" />
            <mxPoint x="935.605" y="1089.4689399999997" as="targetPoint" />
          </mxGeometry>
        </mxCell>
        <mxCell id="E_oI5wvVmsvSm2quck6C-71" value="Send the clicked image to OCR" style="text;html=1;align=center;verticalAlign=middle;resizable=0;points=[];autosize=1;strokeColor=none;fillColor=none;" parent="1" vertex="1">
          <mxGeometry x="334.95000000000005" y="1069" width="190" height="30" as="geometry" />
        </mxCell>
        <mxCell id="E_oI5wvVmsvSm2quck6C-73" style="edgeStyle=orthogonalEdgeStyle;rounded=0;orthogonalLoop=1;jettySize=auto;html=1;exitX=0.25;exitY=0;exitDx=0;exitDy=0;entryX=0.75;entryY=0;entryDx=0;entryDy=0;" parent="1" target="E_oI5wvVmsvSm2quck6C-66" edge="1">
          <mxGeometry relative="1" as="geometry">
            <Array as="points">
              <mxPoint x="1005" y="1090" />
              <mxPoint x="1005" y="1136" />
            </Array>
            <mxPoint x="951" y="1090" as="sourcePoint" />
            <mxPoint x="970" y="1130" as="targetPoint" />
          </mxGeometry>
        </mxCell>
        <mxCell id="E_oI5wvVmsvSm2quck6C-74" value="Extract&lt;br&gt;Text" style="text;html=1;align=center;verticalAlign=middle;resizable=0;points=[];autosize=1;strokeColor=none;fillColor=none;" parent="1" vertex="1">
          <mxGeometry x="998.0699999999999" y="1094.06" width="60" height="40" as="geometry" />
        </mxCell>
        <mxCell id="E_oI5wvVmsvSm2quck6C-75" value="" style="endArrow=classic;html=1;rounded=0;exitX=0.57;exitY=-0.167;exitDx=0;exitDy=0;exitPerimeter=0;entryX=0.138;entryY=0.9;entryDx=0;entryDy=0;entryPerimeter=0;" parent="1" edge="1">
          <mxGeometry width="50" height="50" relative="1" as="geometry">
            <mxPoint x="935.595" y="1136.5289399999997" as="sourcePoint" />
            <mxPoint x="327.46000000000004" y="1139.06" as="targetPoint" />
          </mxGeometry>
        </mxCell>
        <mxCell id="E_oI5wvVmsvSm2quck6C-76" value="Send extracted text to MediTract App" style="text;html=1;align=center;verticalAlign=middle;resizable=0;points=[];autosize=1;strokeColor=none;fillColor=none;" parent="1" vertex="1">
          <mxGeometry x="532" y="1114.06" width="220" height="30" as="geometry" />
        </mxCell>
        <mxCell id="E_oI5wvVmsvSm2quck6C-77" value="" style="endArrow=none;dashed=1;html=1;rounded=0;startArrow=none;" parent="1" source="E_oI5wvVmsvSm2quck6C-91" edge="1">
          <mxGeometry width="50" height="50" relative="1" as="geometry">
            <mxPoint x="538" y="1748" as="sourcePoint" />
            <mxPoint x="538" y="1508" as="targetPoint" />
          </mxGeometry>
        </mxCell>
        <mxCell id="E_oI5wvVmsvSm2quck6C-78" value="" style="rounded=0;whiteSpace=wrap;html=1;rotation=90;" parent="1" vertex="1">
          <mxGeometry x="-77.3" y="1659.89" width="364.61" height="15" as="geometry" />
        </mxCell>
        <mxCell id="E_oI5wvVmsvSm2quck6C-79" value="" style="endArrow=none;dashed=1;html=1;rounded=0;startArrow=none;" parent="1" target="E_oI5wvVmsvSm2quck6C-80" edge="1">
          <mxGeometry width="50" height="50" relative="1" as="geometry">
            <mxPoint x="320" y="1652" as="sourcePoint" />
            <mxPoint x="320.00231196054256" y="1399.5" as="targetPoint" />
          </mxGeometry>
        </mxCell>
        <mxCell id="E_oI5wvVmsvSm2quck6C-80" value="" style="rounded=0;whiteSpace=wrap;html=1;rotation=90;" parent="1" vertex="1">
          <mxGeometry x="136.2" y="1661.37" width="367.61" height="15" as="geometry" />
        </mxCell>
        <mxCell id="E_oI5wvVmsvSm2quck6C-84" value="" style="endArrow=classic;html=1;rounded=0;exitX=0.57;exitY=-0.167;exitDx=0;exitDy=0;exitPerimeter=0;" parent="1" edge="1">
          <mxGeometry width="50" height="50" relative="1" as="geometry">
            <mxPoint x="111" y="1506" as="sourcePoint" />
            <mxPoint x="312.5300000000001" y="1506.15" as="targetPoint" />
          </mxGeometry>
        </mxCell>
        <mxCell id="E_oI5wvVmsvSm2quck6C-85" value="Add prescription" style="text;html=1;align=center;verticalAlign=middle;resizable=0;points=[];autosize=1;strokeColor=none;fillColor=none;" parent="1" vertex="1">
          <mxGeometry x="152.48000000000002" y="1484" width="110" height="30" as="geometry" />
        </mxCell>
        <mxCell id="E_oI5wvVmsvSm2quck6C-86" value="" style="html=1;verticalAlign=bottom;endArrow=open;dashed=1;endSize=8;edgeStyle=elbowEdgeStyle;elbow=vertical;curved=0;rounded=0;startArrow=none;" parent="1" source="E_oI5wvVmsvSm2quck6C-88" edge="1">
          <mxGeometry x="-1" y="-355" relative="1" as="geometry">
            <mxPoint x="311.5" y="1540" as="sourcePoint" />
            <mxPoint x="111.5" y="1540" as="targetPoint" />
            <mxPoint x="350" y="295" as="offset" />
          </mxGeometry>
        </mxCell>
        <mxCell id="E_oI5wvVmsvSm2quck6C-87" value="" style="html=1;verticalAlign=bottom;endArrow=none;dashed=1;endSize=8;edgeStyle=elbowEdgeStyle;elbow=vertical;curved=0;rounded=0;" parent="1" target="E_oI5wvVmsvSm2quck6C-88" edge="1">
          <mxGeometry x="-1" y="-355" relative="1" as="geometry">
            <mxPoint x="311.5" y="1540" as="sourcePoint" />
            <mxPoint x="111.5" y="1540" as="targetPoint" />
            <mxPoint x="350" y="295" as="offset" />
          </mxGeometry>
        </mxCell>
        <mxCell id="E_oI5wvVmsvSm2quck6C-88" value="Render Add prescription Page" style="text;html=1;strokeColor=none;fillColor=none;align=center;verticalAlign=middle;whiteSpace=wrap;rounded=0;" parent="1" vertex="1">
          <mxGeometry x="170" y="1525" width="90" height="30" as="geometry" />
        </mxCell>
        <mxCell id="E_oI5wvVmsvSm2quck6C-89" value="" style="endArrow=classic;html=1;rounded=0;exitX=0.57;exitY=-0.167;exitDx=0;exitDy=0;exitPerimeter=0;" parent="1" edge="1">
          <mxGeometry width="50" height="50" relative="1" as="geometry">
            <mxPoint x="110.73" y="1583" as="sourcePoint" />
            <mxPoint x="312.2600000000001" y="1583.15" as="targetPoint" />
          </mxGeometry>
        </mxCell>
        <mxCell id="E_oI5wvVmsvSm2quck6C-90" value="Click on image icon to take&lt;br&gt;image of prescription &amp;amp;&lt;br&gt;extract details" style="text;html=1;align=center;verticalAlign=middle;resizable=0;points=[];autosize=1;strokeColor=none;fillColor=none;" parent="1" vertex="1">
          <mxGeometry x="122.21000000000001" y="1560" width="170" height="60" as="geometry" />
        </mxCell>
        <mxCell id="E_oI5wvVmsvSm2quck6C-91" value="" style="rounded=0;whiteSpace=wrap;html=1;rotation=90;" parent="1" vertex="1">
          <mxGeometry x="504.49" y="1804.57" width="66.94" height="15" as="geometry" />
        </mxCell>
        <mxCell id="E_oI5wvVmsvSm2quck6C-92" value="" style="endArrow=classic;html=1;rounded=0;exitX=0.57;exitY=-0.167;exitDx=0;exitDy=0;exitPerimeter=0;" parent="1" edge="1">
          <mxGeometry width="50" height="50" relative="1" as="geometry">
            <mxPoint x="328.47" y="1804" as="sourcePoint" />
            <mxPoint x="530.0000000000001" y="1804.15" as="targetPoint" />
          </mxGeometry>
        </mxCell>
        <mxCell id="E_oI5wvVmsvSm2quck6C-93" value="Detail with image send to&lt;br&gt;firebase to store" style="text;html=1;align=center;verticalAlign=middle;resizable=0;points=[];autosize=1;strokeColor=none;fillColor=none;" parent="1" vertex="1">
          <mxGeometry x="344.95000000000005" y="1784" width="160" height="40" as="geometry" />
        </mxCell>
        <mxCell id="E_oI5wvVmsvSm2quck6C-94" value="Store prescription&lt;br&gt;Details" style="text;html=1;align=center;verticalAlign=middle;resizable=0;points=[];autosize=1;strokeColor=none;fillColor=none;" parent="1" vertex="1">
          <mxGeometry x="590" y="1792" width="120" height="40" as="geometry" />
        </mxCell>
        <mxCell id="E_oI5wvVmsvSm2quck6C-95" value="" style="html=1;verticalAlign=bottom;endArrow=open;dashed=1;endSize=8;edgeStyle=elbowEdgeStyle;elbow=vertical;curved=0;rounded=0;startArrow=none;exitX=0;exitY=0.5;exitDx=0;exitDy=0;entryX=0.437;entryY=0.086;entryDx=0;entryDy=0;entryPerimeter=0;" parent="1" source="E_oI5wvVmsvSm2quck6C-97" target="E_oI5wvVmsvSm2quck6C-78" edge="1">
          <mxGeometry x="-1" y="-355" relative="1" as="geometry">
            <mxPoint x="311.5" y="1711" as="sourcePoint" />
            <mxPoint x="130" y="1627" as="targetPoint" />
            <mxPoint x="350" y="295" as="offset" />
            <Array as="points">
              <mxPoint x="140" y="1644" />
            </Array>
          </mxGeometry>
        </mxCell>
        <mxCell id="E_oI5wvVmsvSm2quck6C-96" value="" style="html=1;verticalAlign=bottom;endArrow=none;dashed=1;endSize=8;edgeStyle=elbowEdgeStyle;elbow=vertical;curved=0;rounded=0;" parent="1" target="E_oI5wvVmsvSm2quck6C-97" edge="1">
          <mxGeometry x="-1" y="-355" relative="1" as="geometry">
            <mxPoint x="311.5" y="1644" as="sourcePoint" />
            <mxPoint x="111.5" y="1644" as="targetPoint" />
            <mxPoint x="350" y="295" as="offset" />
          </mxGeometry>
        </mxCell>
        <mxCell id="E_oI5wvVmsvSm2quck6C-97" value="Render OCR Page" style="text;html=1;strokeColor=none;fillColor=none;align=center;verticalAlign=middle;whiteSpace=wrap;rounded=0;" parent="1" vertex="1">
          <mxGeometry x="170" y="1629" width="90" height="30" as="geometry" />
        </mxCell>
        <mxCell id="E_oI5wvVmsvSm2quck6C-98" value="" style="endArrow=classic;html=1;rounded=0;exitX=0.57;exitY=-0.167;exitDx=0;exitDy=0;exitPerimeter=0;" parent="1" edge="1">
          <mxGeometry width="50" height="50" relative="1" as="geometry">
            <mxPoint x="110.73000000000002" y="1804" as="sourcePoint" />
            <mxPoint x="312.2600000000001" y="1804.15" as="targetPoint" />
          </mxGeometry>
        </mxCell>
        <mxCell id="E_oI5wvVmsvSm2quck6C-99" value="Fill other details for prescription" style="text;html=1;align=center;verticalAlign=middle;resizable=0;points=[];autosize=1;strokeColor=none;fillColor=none;" parent="1" vertex="1">
          <mxGeometry x="114.21000000000004" y="1782" width="190" height="30" as="geometry" />
        </mxCell>
        <mxCell id="E_oI5wvVmsvSm2quck6C-100" style="edgeStyle=orthogonalEdgeStyle;rounded=0;orthogonalLoop=1;jettySize=auto;html=1;exitX=0.25;exitY=0;exitDx=0;exitDy=0;entryX=0.5;entryY=0;entryDx=0;entryDy=0;" parent="1" edge="1">
          <mxGeometry relative="1" as="geometry">
            <Array as="points">
              <mxPoint x="600" y="1805" />
              <mxPoint x="600" y="1826" />
            </Array>
            <mxPoint x="546" y="1805" as="sourcePoint" />
            <mxPoint x="546" y="1826" as="targetPoint" />
          </mxGeometry>
        </mxCell>
        <mxCell id="E_oI5wvVmsvSm2quck6C-101" value="" style="rounded=0;whiteSpace=wrap;html=1;rotation=90;" parent="1" vertex="1">
          <mxGeometry x="901.47" y="1710.53" width="83.06" height="16" as="geometry" />
        </mxCell>
        <mxCell id="E_oI5wvVmsvSm2quck6C-102" value="" style="endArrow=classic;html=1;rounded=0;exitX=0.57;exitY=-0.167;exitDx=0;exitDy=0;exitPerimeter=0;" parent="1" edge="1">
          <mxGeometry width="50" height="50" relative="1" as="geometry">
            <mxPoint x="110.73000000000002" y="1695" as="sourcePoint" />
            <mxPoint x="312.2600000000001" y="1695.15" as="targetPoint" />
          </mxGeometry>
        </mxCell>
        <mxCell id="E_oI5wvVmsvSm2quck6C-103" value="Click the image of prescription" style="text;html=1;align=center;verticalAlign=middle;resizable=0;points=[];autosize=1;strokeColor=none;fillColor=none;" parent="1" vertex="1">
          <mxGeometry x="117.21000000000004" y="1673" width="180" height="30" as="geometry" />
        </mxCell>
        <mxCell id="E_oI5wvVmsvSm2quck6C-104" value="" style="endArrow=classic;html=1;rounded=0;exitX=0.57;exitY=-0.167;exitDx=0;exitDy=0;exitPerimeter=0;entryX=0.138;entryY=0.9;entryDx=0;entryDy=0;entryPerimeter=0;" parent="1" edge="1">
          <mxGeometry width="50" height="50" relative="1" as="geometry">
            <mxPoint x="327.47" y="1695" as="sourcePoint" />
            <mxPoint x="935.605" y="1692.4689399999997" as="targetPoint" />
          </mxGeometry>
        </mxCell>
        <mxCell id="E_oI5wvVmsvSm2quck6C-105" value="Send the clicked image to OCR" style="text;html=1;align=center;verticalAlign=middle;resizable=0;points=[];autosize=1;strokeColor=none;fillColor=none;" parent="1" vertex="1">
          <mxGeometry x="334.95000000000005" y="1672" width="190" height="30" as="geometry" />
        </mxCell>
        <mxCell id="E_oI5wvVmsvSm2quck6C-106" style="edgeStyle=orthogonalEdgeStyle;rounded=0;orthogonalLoop=1;jettySize=auto;html=1;exitX=0.25;exitY=0;exitDx=0;exitDy=0;entryX=0.75;entryY=0;entryDx=0;entryDy=0;" parent="1" target="E_oI5wvVmsvSm2quck6C-101" edge="1">
          <mxGeometry relative="1" as="geometry">
            <Array as="points">
              <mxPoint x="1005" y="1693" />
              <mxPoint x="1005" y="1739" />
            </Array>
            <mxPoint x="951" y="1693" as="sourcePoint" />
            <mxPoint x="970" y="1733" as="targetPoint" />
          </mxGeometry>
        </mxCell>
        <mxCell id="E_oI5wvVmsvSm2quck6C-107" value="Extract&lt;br&gt;Text" style="text;html=1;align=center;verticalAlign=middle;resizable=0;points=[];autosize=1;strokeColor=none;fillColor=none;" parent="1" vertex="1">
          <mxGeometry x="998.0699999999999" y="1697.06" width="60" height="40" as="geometry" />
        </mxCell>
        <mxCell id="E_oI5wvVmsvSm2quck6C-108" value="" style="endArrow=classic;html=1;rounded=0;exitX=0.57;exitY=-0.167;exitDx=0;exitDy=0;exitPerimeter=0;entryX=0.138;entryY=0.9;entryDx=0;entryDy=0;entryPerimeter=0;" parent="1" edge="1">
          <mxGeometry width="50" height="50" relative="1" as="geometry">
            <mxPoint x="935.595" y="1739.5289399999997" as="sourcePoint" />
            <mxPoint x="327.46000000000004" y="1742.06" as="targetPoint" />
          </mxGeometry>
        </mxCell>
        <mxCell id="E_oI5wvVmsvSm2quck6C-109" value="Send extracted text to MediTract App" style="text;html=1;align=center;verticalAlign=middle;resizable=0;points=[];autosize=1;strokeColor=none;fillColor=none;" parent="1" vertex="1">
          <mxGeometry x="532" y="1717.06" width="220" height="30" as="geometry" />
        </mxCell>
        <mxCell id="E_oI5wvVmsvSm2quck6C-112" value="" style="endArrow=none;dashed=1;html=1;rounded=0;startArrow=none;" parent="1" target="E_oI5wvVmsvSm2quck6C-111" edge="1">
          <mxGeometry width="50" height="50" relative="1" as="geometry">
            <mxPoint x="105" y="2612.8571428571427" as="sourcePoint" />
            <mxPoint x="105" y="1274" as="targetPoint" />
          </mxGeometry>
        </mxCell>
        <mxCell id="E_oI5wvVmsvSm2quck6C-111" value="" style="rounded=0;whiteSpace=wrap;html=1;rotation=90;" parent="1" vertex="1">
          <mxGeometry x="5.16" y="2056.5299999999997" width="199.67" height="15" as="geometry" />
        </mxCell>
        <mxCell id="E_oI5wvVmsvSm2quck6C-114" value="" style="endArrow=none;dashed=1;html=1;rounded=0;startArrow=none;" parent="1" target="E_oI5wvVmsvSm2quck6C-113" edge="1">
          <mxGeometry width="50" height="50" relative="1" as="geometry">
            <mxPoint x="320" y="2611.4285714285716" as="sourcePoint" />
            <mxPoint x="320.0050000000001" y="950.0549999999998" as="targetPoint" />
          </mxGeometry>
        </mxCell>
        <mxCell id="E_oI5wvVmsvSm2quck6C-113" value="" style="rounded=0;whiteSpace=wrap;html=1;rotation=90;" parent="1" vertex="1">
          <mxGeometry x="221.64" y="2053.69" width="194.97" height="15" as="geometry" />
        </mxCell>
        <mxCell id="E_oI5wvVmsvSm2quck6C-119" value="" style="endArrow=classic;html=1;rounded=0;exitX=0.57;exitY=-0.167;exitDx=0;exitDy=0;exitPerimeter=0;" parent="1" edge="1">
          <mxGeometry width="50" height="50" relative="1" as="geometry">
            <mxPoint x="110.73" y="1982" as="sourcePoint" />
            <mxPoint x="312.2600000000001" y="1982.15" as="targetPoint" />
          </mxGeometry>
        </mxCell>
        <mxCell id="E_oI5wvVmsvSm2quck6C-120" value="Search Medicine or&lt;br&gt;find medicine suggestions" style="text;html=1;align=center;verticalAlign=middle;resizable=0;points=[];autosize=1;strokeColor=none;fillColor=none;" parent="1" vertex="1">
          <mxGeometry x="127.21000000000004" y="1962" width="160" height="40" as="geometry" />
        </mxCell>
        <mxCell id="E_oI5wvVmsvSm2quck6C-121" value="" style="html=1;verticalAlign=bottom;endArrow=open;dashed=1;endSize=8;edgeStyle=elbowEdgeStyle;elbow=vertical;curved=0;rounded=0;startArrow=none;" parent="1" source="E_oI5wvVmsvSm2quck6C-123" edge="1">
          <mxGeometry x="-1" y="-355" relative="1" as="geometry">
            <mxPoint x="311.23" y="2031" as="sourcePoint" />
            <mxPoint x="111.23" y="2031" as="targetPoint" />
            <mxPoint x="350" y="295" as="offset" />
          </mxGeometry>
        </mxCell>
        <mxCell id="E_oI5wvVmsvSm2quck6C-122" value="" style="html=1;verticalAlign=bottom;endArrow=none;dashed=1;endSize=8;edgeStyle=elbowEdgeStyle;elbow=vertical;curved=0;rounded=0;" parent="1" target="E_oI5wvVmsvSm2quck6C-123" edge="1">
          <mxGeometry x="-1" y="-355" relative="1" as="geometry">
            <mxPoint x="311.23" y="2031" as="sourcePoint" />
            <mxPoint x="111.23" y="2031" as="targetPoint" />
            <mxPoint x="350" y="295" as="offset" />
          </mxGeometry>
        </mxCell>
        <mxCell id="E_oI5wvVmsvSm2quck6C-123" value="Render Search Medicine Page" style="text;html=1;strokeColor=none;fillColor=none;align=center;verticalAlign=middle;whiteSpace=wrap;rounded=0;" parent="1" vertex="1">
          <mxGeometry x="169.73000000000002" y="2016" width="90" height="30" as="geometry" />
        </mxCell>
        <mxCell id="E_oI5wvVmsvSm2quck6C-124" value="" style="endArrow=classic;html=1;rounded=0;exitX=0.57;exitY=-0.167;exitDx=0;exitDy=0;exitPerimeter=0;" parent="1" edge="1">
          <mxGeometry width="50" height="50" relative="1" as="geometry">
            <mxPoint x="110.74000000000001" y="2077" as="sourcePoint" />
            <mxPoint x="312.2700000000001" y="2077.15" as="targetPoint" />
          </mxGeometry>
        </mxCell>
        <mxCell id="E_oI5wvVmsvSm2quck6C-125" value="Enter the search query or disease&lt;br&gt;name and/or description" style="text;html=1;align=center;verticalAlign=middle;resizable=0;points=[];autosize=1;strokeColor=none;fillColor=none;" parent="1" vertex="1">
          <mxGeometry x="108.22000000000004" y="2058" width="200" height="40" as="geometry" />
        </mxCell>
        <mxCell id="E_oI5wvVmsvSm2quck6C-126" value="" style="rounded=1;whiteSpace=wrap;html=1;" parent="1" vertex="1">
          <mxGeometry x="1068" y="19" width="120" height="60" as="geometry" />
        </mxCell>
        <mxCell id="E_oI5wvVmsvSm2quck6C-127" value="Semantic&lt;br&gt;Search" style="text;html=1;strokeColor=none;fillColor=none;align=center;verticalAlign=middle;whiteSpace=wrap;rounded=0;" parent="1" vertex="1">
          <mxGeometry x="1098" y="34" width="60" height="30" as="geometry" />
        </mxCell>
        <mxCell id="E_oI5wvVmsvSm2quck6C-128" value="" style="endArrow=none;dashed=1;html=1;rounded=0;startArrow=none;" parent="1" source="E_oI5wvVmsvSm2quck6C-131" edge="1">
          <mxGeometry width="50" height="50" relative="1" as="geometry">
            <mxPoint x="1128" y="2291.1111111111113" as="sourcePoint" />
            <mxPoint x="1128" y="79" as="targetPoint" />
          </mxGeometry>
        </mxCell>
        <mxCell id="E_oI5wvVmsvSm2quck6C-129" value="" style="endArrow=classic;html=1;rounded=0;exitX=0.57;exitY=-0.167;exitDx=0;exitDy=0;exitPerimeter=0;entryX=0.25;entryY=1;entryDx=0;entryDy=0;" parent="1" target="E_oI5wvVmsvSm2quck6C-131" edge="1">
          <mxGeometry width="50" height="50" relative="1" as="geometry">
            <mxPoint x="327.63" y="2078" as="sourcePoint" />
            <mxPoint x="935.765" y="2075.4689399999997" as="targetPoint" />
          </mxGeometry>
        </mxCell>
        <mxCell id="E_oI5wvVmsvSm2quck6C-130" value="Send the query to Semantic Search" style="text;html=1;align=center;verticalAlign=middle;resizable=0;points=[];autosize=1;strokeColor=none;fillColor=none;" parent="1" vertex="1">
          <mxGeometry x="325.11" y="2056" width="210" height="30" as="geometry" />
        </mxCell>
        <mxCell id="E_oI5wvVmsvSm2quck6C-132" value="" style="endArrow=none;dashed=1;html=1;rounded=0;startArrow=none;" parent="1" target="E_oI5wvVmsvSm2quck6C-131" edge="1">
          <mxGeometry width="50" height="50" relative="1" as="geometry">
            <mxPoint x="1130" y="2612.8571428571427" as="sourcePoint" />
            <mxPoint x="1128" y="79" as="targetPoint" />
          </mxGeometry>
        </mxCell>
        <mxCell id="E_oI5wvVmsvSm2quck6C-131" value="" style="rounded=0;whiteSpace=wrap;html=1;rotation=90;" parent="1" vertex="1">
          <mxGeometry x="1086.47" y="2089" width="83.06" height="16" as="geometry" />
        </mxCell>
        <mxCell id="E_oI5wvVmsvSm2quck6C-133" style="edgeStyle=orthogonalEdgeStyle;rounded=0;orthogonalLoop=1;jettySize=auto;html=1;exitX=0.25;exitY=0;exitDx=0;exitDy=0;entryX=0.75;entryY=0;entryDx=0;entryDy=0;" parent="1" source="E_oI5wvVmsvSm2quck6C-131" target="E_oI5wvVmsvSm2quck6C-131" edge="1">
          <mxGeometry relative="1" as="geometry">
            <Array as="points">
              <mxPoint x="1170" y="2076" />
              <mxPoint x="1170" y="2118" />
            </Array>
          </mxGeometry>
        </mxCell>
        <mxCell id="E_oI5wvVmsvSm2quck6C-134" value="Generate best&lt;br&gt;medicine&lt;br&gt;suggestions" style="text;html=1;align=center;verticalAlign=middle;resizable=0;points=[];autosize=1;strokeColor=none;fillColor=none;" parent="1" vertex="1">
          <mxGeometry x="1160.53" y="2066" width="100" height="60" as="geometry" />
        </mxCell>
        <mxCell id="E_oI5wvVmsvSm2quck6C-135" value="" style="endArrow=classic;html=1;rounded=0;exitX=0.57;exitY=-0.167;exitDx=0;exitDy=0;exitPerimeter=0;" parent="1" edge="1">
          <mxGeometry width="50" height="50" relative="1" as="geometry">
            <mxPoint x="1120.37" y="2119" as="sourcePoint" />
            <mxPoint x="328" y="2119" as="targetPoint" />
          </mxGeometry>
        </mxCell>
        <mxCell id="E_oI5wvVmsvSm2quck6C-136" value="Send the generated medicine data" style="text;html=1;align=center;verticalAlign=middle;resizable=0;points=[];autosize=1;strokeColor=none;fillColor=none;" parent="1" vertex="1">
          <mxGeometry x="537" y="2098" width="210" height="30" as="geometry" />
        </mxCell>
        <mxCell id="PmyB2ZIpsIppOUHwU6_w-1" value="" style="endArrow=classic;html=1;rounded=0;exitX=0.57;exitY=-0.167;exitDx=0;exitDy=0;exitPerimeter=0;" edge="1" parent="1">
          <mxGeometry width="50" height="50" relative="1" as="geometry">
            <mxPoint x="110.73000000000002" y="1272" as="sourcePoint" />
            <mxPoint x="312.2600000000001" y="1272.15" as="targetPoint" />
          </mxGeometry>
        </mxCell>
        <mxCell id="PmyB2ZIpsIppOUHwU6_w-2" value="Check added medicines" style="text;html=1;align=center;verticalAlign=middle;resizable=0;points=[];autosize=1;strokeColor=none;fillColor=none;" vertex="1" parent="1">
          <mxGeometry x="132.21000000000004" y="1250" width="150" height="30" as="geometry" />
        </mxCell>
        <mxCell id="PmyB2ZIpsIppOUHwU6_w-4" value="" style="endArrow=none;dashed=1;html=1;rounded=0;startArrow=none;" edge="1" parent="1" target="PmyB2ZIpsIppOUHwU6_w-3">
          <mxGeometry width="50" height="50" relative="1" as="geometry">
            <mxPoint x="538" y="2610" as="sourcePoint" />
            <mxPoint x="538" y="1243" as="targetPoint" />
          </mxGeometry>
        </mxCell>
        <mxCell id="PmyB2ZIpsIppOUHwU6_w-3" value="" style="rounded=0;whiteSpace=wrap;html=1;rotation=90;" vertex="1" parent="1">
          <mxGeometry x="504.49" y="1290" width="66.94" height="15" as="geometry" />
        </mxCell>
        <mxCell id="PmyB2ZIpsIppOUHwU6_w-5" value="" style="endArrow=classic;html=1;rounded=0;exitX=0.57;exitY=-0.167;exitDx=0;exitDy=0;exitPerimeter=0;" edge="1" parent="1">
          <mxGeometry width="50" height="50" relative="1" as="geometry">
            <mxPoint x="328.47" y="1273.5" as="sourcePoint" />
            <mxPoint x="530.0000000000001" y="1273.65" as="targetPoint" />
          </mxGeometry>
        </mxCell>
        <mxCell id="PmyB2ZIpsIppOUHwU6_w-6" value="Request firebase for data&lt;br&gt;of added medicines" style="text;html=1;align=center;verticalAlign=middle;resizable=0;points=[];autosize=1;strokeColor=none;fillColor=none;" vertex="1" parent="1">
          <mxGeometry x="344.95000000000005" y="1253.5" width="160" height="40" as="geometry" />
        </mxCell>
        <mxCell id="PmyB2ZIpsIppOUHwU6_w-7" style="edgeStyle=orthogonalEdgeStyle;rounded=0;orthogonalLoop=1;jettySize=auto;html=1;exitX=0.25;exitY=0;exitDx=0;exitDy=0;entryX=0.75;entryY=0;entryDx=0;entryDy=0;" edge="1" parent="1" source="PmyB2ZIpsIppOUHwU6_w-3" target="PmyB2ZIpsIppOUHwU6_w-3">
          <mxGeometry relative="1" as="geometry">
            <Array as="points">
              <mxPoint x="600" y="1280" />
              <mxPoint x="600" y="1314" />
            </Array>
          </mxGeometry>
        </mxCell>
        <mxCell id="PmyB2ZIpsIppOUHwU6_w-8" value="Retrives data&lt;br&gt;of meddicines" style="text;html=1;align=center;verticalAlign=middle;resizable=0;points=[];autosize=1;strokeColor=none;fillColor=none;" vertex="1" parent="1">
          <mxGeometry x="593" y="1278" width="100" height="40" as="geometry" />
        </mxCell>
        <mxCell id="PmyB2ZIpsIppOUHwU6_w-9" value="" style="endArrow=classic;html=1;rounded=0;exitX=0.57;exitY=-0.167;exitDx=0;exitDy=0;exitPerimeter=0;" edge="1" parent="1">
          <mxGeometry width="50" height="50" relative="1" as="geometry">
            <mxPoint x="530.0000000000001" y="1313.65" as="sourcePoint" />
            <mxPoint x="328.47" y="1313.5" as="targetPoint" />
          </mxGeometry>
        </mxCell>
        <mxCell id="PmyB2ZIpsIppOUHwU6_w-10" value="Send the retrived data&lt;br&gt;of medicines" style="text;html=1;align=center;verticalAlign=middle;resizable=0;points=[];autosize=1;strokeColor=none;fillColor=none;" vertex="1" parent="1">
          <mxGeometry x="354.95000000000005" y="1293.5" width="140" height="40" as="geometry" />
        </mxCell>
        <mxCell id="PmyB2ZIpsIppOUHwU6_w-11" value="" style="html=1;verticalAlign=bottom;endArrow=open;dashed=1;endSize=8;edgeStyle=elbowEdgeStyle;elbow=vertical;curved=0;rounded=0;startArrow=none;" edge="1" parent="1" source="PmyB2ZIpsIppOUHwU6_w-13">
          <mxGeometry x="-1" y="-355" relative="1" as="geometry">
            <mxPoint x="311.5" y="2119" as="sourcePoint" />
            <mxPoint x="111.5" y="2119" as="targetPoint" />
            <mxPoint x="350" y="295" as="offset" />
          </mxGeometry>
        </mxCell>
        <mxCell id="PmyB2ZIpsIppOUHwU6_w-12" value="" style="html=1;verticalAlign=bottom;endArrow=none;dashed=1;endSize=8;edgeStyle=elbowEdgeStyle;elbow=vertical;curved=0;rounded=0;" edge="1" parent="1" target="PmyB2ZIpsIppOUHwU6_w-13">
          <mxGeometry x="-1" y="-355" relative="1" as="geometry">
            <mxPoint x="311.5" y="2119" as="sourcePoint" />
            <mxPoint x="111.5" y="2119" as="targetPoint" />
            <mxPoint x="350" y="295" as="offset" />
          </mxGeometry>
        </mxCell>
        <mxCell id="PmyB2ZIpsIppOUHwU6_w-13" value="Render list of suggested medicines" style="text;html=1;strokeColor=none;fillColor=none;align=center;verticalAlign=middle;whiteSpace=wrap;rounded=0;" vertex="1" parent="1">
          <mxGeometry x="150" y="2104" width="130" height="30" as="geometry" />
        </mxCell>
      </root>
    </mxGraphModel>
  </diagram>
</mxfile>
